<?xml version="1.0" encoding="utf-8"?>
<!-- Generator: Adobe Illustrator 22.0.1, SVG Export Plug-In . SVG Version: 6.00 Build 0)  -->
<svg version="1.1" id="Layer_1" xmlns="http://www.w3.org/2000/svg" xmlns:xlink="http://www.w3.org/1999/xlink" x="0px" y="0px"
	 viewBox="0 0 300.3 43" style="enable-background:new 0 0 300.3 43;" xml:space="preserve">
<style type="text/css">
	.st0{fill:#FFFFFF;}
</style>
<g>
	<path class="st0" d="M95,33.1l-0.1-10.6L89.8,31h-3.5l-5.1-8.2v10.3h-7.2V9.8h6.5l7.6,12.4l7.4-12.4h6.5l0.1,23.3H95z"/>
	<path class="st0" d="M111.4,32.1c-2-1-3.6-2.5-4.7-4.4c-1.1-1.9-1.7-4-1.7-6.3c0-2.3,0.6-4.4,1.7-6.3c1.1-1.9,2.7-3.3,4.7-4.4
		c2-1,4.3-1.6,6.8-1.6c2.5,0,4.8,0.5,6.8,1.6c2,1,3.6,2.5,4.7,4.4c1.1,1.9,1.7,4,1.7,6.3c0,2.3-0.6,4.4-1.7,6.3
		c-1.1,1.9-2.7,3.3-4.7,4.4c-2,1-4.3,1.6-6.8,1.6C115.7,33.7,113.4,33.2,111.4,32.1z M120.8,26.6c0.8-0.5,1.4-1.2,1.9-2
		c0.5-0.9,0.7-1.9,0.7-3.1c0-1.2-0.2-2.2-0.7-3.1c-0.5-0.9-1.1-1.6-1.9-2c-0.8-0.5-1.7-0.7-2.7-0.7c-1,0-1.9,0.2-2.7,0.7
		c-0.8,0.5-1.4,1.2-1.9,2c-0.5,0.9-0.7,1.9-0.7,3.1c0,1.2,0.2,2.2,0.7,3.1c0.5,0.9,1.1,1.6,1.9,2c0.8,0.5,1.7,0.7,2.7,0.7
		C119.1,27.3,120,27.1,120.8,26.6z"/>
	<path class="st0" d="M144.2,27.3h-2.1v5.9h-7.9V9.8h11.2c2.2,0,4,0.4,5.6,1.1c1.6,0.7,2.8,1.7,3.7,3.1c0.9,1.3,1.3,2.9,1.3,4.7
		c0,1.7-0.4,3.1-1.1,4.4c-0.8,1.2-1.8,2.2-3.3,3l4.9,7.2h-8.4L144.2,27.3z M147.3,16.6c-0.5-0.5-1.3-0.7-2.4-0.7h-2.9v5.5h2.9
		c1.1,0,1.9-0.2,2.4-0.7c0.5-0.5,0.8-1.2,0.8-2C148.1,17.7,147.9,17.1,147.3,16.6z"/>
	<path class="st0" d="M178.5,27.2v5.9H159V9.8h19v5.9h-11.2v2.7h9.9v5.7h-9.9v3.1H178.5z"/>
	<path class="st0" d="M181.5,9.8h7.9V27h10.5v6.1h-18.4V9.8z"/>
	<path class="st0" d="M213.6,24.7v8.5h-7.9v-8.6l-8.8-14.8h8.3l4.8,8.1l4.8-8.1h7.6L213.6,24.7z"/>
	<path class="st0" d="M227.8,15.9H221V9.8h21.5v6.1h-6.8v17.2h-7.9V15.9z"/>
	<path class="st0" d="M244.6,9.8h7.9v23.3h-7.9V9.8z"/>
	<path class="st0" d="M261.6,32.1c-2-1-3.5-2.5-4.7-4.3c-1.1-1.9-1.7-4-1.7-6.3s0.6-4.5,1.7-6.3c1.1-1.9,2.7-3.3,4.7-4.3
		c2-1,4.2-1.6,6.7-1.6c2.3,0,4.3,0.4,6.1,1.2c1.8,0.8,3.2,2,4.4,3.5l-5,4.4c-1.4-1.8-3.1-2.7-5.1-2.7c-1.6,0-3,0.5-4,1.6
		c-1,1.1-1.5,2.5-1.5,4.3c0,1.8,0.5,3.2,1.5,4.3c1,1.1,2.3,1.6,4,1.6c2,0,3.7-0.9,5.1-2.7l5,4.4c-1.2,1.5-2.6,2.7-4.4,3.5
		c-1.8,0.8-3.8,1.2-6.1,1.2C265.8,33.7,263.6,33.2,261.6,32.1z"/>
	<path class="st0" d="M283.8,33c-1.8-0.4-3.3-1-4.5-1.8l2.5-5.7c1.1,0.6,2.4,1.2,3.7,1.6c1.4,0.4,2.7,0.6,4,0.6
		c1.1,0,1.9-0.1,2.3-0.3c0.5-0.2,0.7-0.5,0.7-1c0-0.5-0.3-0.9-0.9-1.1c-0.6-0.2-1.6-0.5-3-0.8c-1.8-0.4-3.3-0.8-4.5-1.2
		c-1.2-0.4-2.2-1.1-3.1-2.1c-0.9-1-1.3-2.3-1.3-4c0-1.5,0.4-2.8,1.2-4s2.1-2.1,3.7-2.8c1.6-0.7,3.6-1,6-1c1.6,0,3.2,0.2,4.7,0.5
		c1.5,0.3,2.9,0.9,4.1,1.5l-2.4,5.7c-2.3-1.2-4.5-1.7-6.5-1.7c-2,0-3,0.5-3,1.5c0,0.5,0.3,0.8,0.9,1.1s1.6,0.5,3,0.8
		c1.8,0.3,3.3,0.7,4.5,1.2s2.3,1.1,3.2,2.1c0.9,1,1.4,2.3,1.4,4c0,1.5-0.4,2.8-1.2,4c-0.8,1.2-2.1,2.1-3.7,2.8
		c-1.6,0.7-3.6,1.1-6,1.1C287.5,33.7,285.6,33.5,283.8,33z"/>
</g>
<g>
	<path class="st0" d="M27,32.1c-1.8,0-3.7,1.1-4.5,2.6c-1.6,2.6-0.8,5.8,1.8,7.1c2.6,1.3,5.8,0.5,7.1-2.1c1.1-1.6,0.8-3.7,0-5.3
		l5.8-15.8L27,32.1z"/>
	<path class="st0" d="M22.8,0.8C11,2.6,1.3,13.4,0.7,25.8c-0.3,3.9,0.5,7.9,2.4,11.6c0.3,0.5,0.8,0.8,1.6,0.5l2.9-1.3
		c0.5-0.3,0.8-0.8,0.5-1.3C6.8,32.4,6,29.5,6,26.3c0.3-9.7,7.6-18.4,17.1-20c6.1-1.1,11.6,0.5,16.1,3.7c0.5,0.3,1.1,0.3,1.3,0
		l2.4-2.6c0.5-0.5,0.5-1.3,0-1.6C37.3,1.8,30.7-0.3,22.8,0.8z"/>
	<path class="st0" d="M48.1,11c-0.3-0.5-1.1-0.5-1.6,0l-2.4,2.4c-0.3,0.3-0.5,1.1,0,1.3c2.4,3.4,3.9,7.6,3.9,12.1
		c0,2.9-0.5,5.8-1.8,8.4c-0.3,0.5,0,1.1,0.5,1.3l2.9,1.3c0.5,0.3,1.3,0,1.3-0.5c1.6-3.4,2.4-7.1,2.4-10.8C53.4,21,51.5,15.5,48.1,11
		z"/>
</g>
</svg>
