<?xml version="1.0" encoding="utf-8"?>
<!-- Generator: Adobe Illustrator 22.0.1, SVG Export Plug-In . SVG Version: 6.00 Build 0)  -->
<svg version="1.1" id="Layer_1" xmlns="http://www.w3.org/2000/svg" xmlns:xlink="http://www.w3.org/1999/xlink" x="0px" y="0px"
	 viewBox="0 0 421.8 441.8" style="enable-background:new 0 0 421.8 441.8;" xml:space="preserve">
<style type="text/css">
	.st0{fill:#DD3726;}
</style>
<path class="st0" d="M5,0.7c-2,0-3.8,1.2-4.6,3.1c-0.8,1.9-0.3,4,1.1,5.4l205.6,205.6c1,1,2.3,1.5,3.5,1.5s2.6-0.5,3.5-1.5
	L419.6,9.3c1.4-1.3,1.9-3.5,1.1-5.5c-0.8-1.9-2.6-3.1-4.6-3.1H5z"/>
<path class="st0" d="M5,225.7c-2,0-3.8,1.2-4.6,3.1c-0.8,1.9-0.3,4,1.1,5.4l205.6,205.6c1,1,2.3,1.5,3.5,1.5s2.6-0.5,3.5-1.5
	l205.5-205.5c1.4-1.3,1.9-3.5,1.1-5.5c-0.8-1.9-2.6-3.1-4.6-3.1H5z"/>
</svg>
