<?xml version="1.0" encoding="utf-8"?>
<!-- Generator: Adobe Illustrator 22.0.1, SVG Export Plug-In . SVG Version: 6.00 Build 0)  -->
<svg version="1.1" id="Layer_1" xmlns="http://www.w3.org/2000/svg" xmlns:xlink="http://www.w3.org/1999/xlink" x="0px" y="0px"
	 viewBox="0 0 421.8 441.8" style="enable-background:new 0 0 421.8 441.8;" xml:space="preserve">
<style type="text/css">
	.st0{fill:#54B454;}
</style>
<path class="st0" d="M416.1,441.3c2,0,3.8-1.2,4.6-3.1c0.8-1.9,0.3-4-1.1-5.4L214,227.2c-1-1-2.3-1.5-3.5-1.5s-2.6,0.5-3.5,1.5
	L1.5,432.7c-1.4,1.3-1.9,3.5-1.1,5.5c0.8,1.9,2.6,3.1,4.6,3.1H416.1z"/>
<path class="st0" d="M416.1,216.3c2,0,3.8-1.2,4.6-3.1c0.8-1.9,0.3-4-1.1-5.4L214,2.2c-1-1-2.3-1.5-3.5-1.5s-2.6,0.5-3.5,1.5
	L1.5,207.7c-1.4,1.3-1.9,3.5-1.1,5.5c0.8,1.9,2.6,3.1,4.6,3.1H416.1z"/>
</svg>
